<?xml version="1.0" encoding="utf-8"?>
<!-- Generator: Adobe Illustrator 26.5.0, SVG Export Plug-In . SVG Version: 6.00 Build 0)  -->
<svg version="1.1" id="Layer_1" xmlns="http://www.w3.org/2000/svg" xmlns:xlink="http://www.w3.org/1999/xlink" x="0px" y="0px"
	 viewBox="0 0 1920 1080" style="enable-background:new 0 0 1920 1080;" xml:space="preserve">
<style type="text/css">
	.st0{fill:#FFFFFF;stroke:#000000;stroke-miterlimit:10;}
</style>
<polygon class="st0" points="860.14,491 814.9,881.48 974.43,881.48 994.67,808.86 904.79,814.81 970.86,501.71 "/>
<polygon class="st0" points="1051.81,498.14 1033.95,881.48 1141.1,881.48 1126.81,498.14 "/>
<polygon class="st0" points="1192.29,498.14 1200.62,881.48 1269.67,881.48 1275.62,725.52 1370.86,881.48 1454.19,881.48 
	1323.24,673.14 1497.05,473.14 1363.71,491 1262.52,654.1 1305.38,468.38 "/>
<path class="st0" d="M613.71,983.86"/>
<path class="st0" d="M737.93,519.66"/>
<polygon class="st0" points="737.93,881.48 613.71,881.48 607.76,674.93 507.76,700.52 507.76,589.81 597.05,589.81 568.48,352.9 
	1538.71,300.52 1538.71,436.24 697.05,433.86 686.33,582.67 761.33,566 774.43,663.62 708.95,664.81 "/>
</svg>
